<svg xmlns="http://www.w3.org/2000/svg" viewBox="0 0 954.12 118.93"><g id="Layer_7" data-name="Layer 7"><path d="M61.33,75.72q12.21-3.57,18.8-12.31t6.58-21.59Q86.71,24.65,75.1,15t-32-9.68H4.22v7.12H43.07q17.32,0,26.46,7.66t9.13,21.74q0,14.09-9.13,21.75T43.07,71.23H4.22v42.4h7.9V78.19h31a80.07,80.07,0,0,0,10.52-.77l25.84,36.21h9Z" style="fill:#fff"/><polygon points="130.5 12.42 195.03 12.42 195.03 5.3 122.61 5.3 122.61 12.52 130.5 12.52 130.5 12.42" style="fill:#fff"/><polygon points="141.49 106.51 141.49 106.79 122.61 106.79 122.61 113.63 197.35 113.63 197.35 106.51 141.49 106.51" style="fill:#fff"/><polygon points="131.28 62.1 194.73 62.1 194.73 55.13 149.11 55.13 149.11 55.29 122.61 55.29 122.61 62.27 131.28 62.27 131.28 62.1" style="fill:#fff"/><polygon points="272.71 5.3 264.82 5.3 214.99 113.63 223.5 113.63 237.28 83.14 237.29 83.14 240.37 76.49 268.69 13.97 297.16 76.49 300.04 83.14 300.1 83.14 314.03 113.63 322.54 113.63 272.71 5.3" style="fill:#fff"/><path d="M442.32,31.53A50.86,50.86,0,0,0,422,12.27q-13.08-7-29.94-7H349.16v7.12h42.25q15,0,26.46,6A42.64,42.64,0,0,1,435.51,35a47.8,47.8,0,0,1,6.19,24.45,47.83,47.83,0,0,1-6.19,24.45,42.62,42.62,0,0,1-17.64,16.63q-11.46,6-26.46,6H357.05v-47h-7.89v54.16H392q16.86,0,29.94-7A51,51,0,0,0,442.32,87.4a53.81,53.81,0,0,0,7.27-27.93A53.87,53.87,0,0,0,442.32,31.53Z" style="fill:#fff"/><path d="M512.73,76.33v37.3h-7.89V76.33L461.2,5.3h8.66L509,69.06,548.17,5.3h8.2Z" style="fill:#fff"/><path d="M586.47,110.3q-10.76-4.1-16.79-10.6l3.56-5.88a41.94,41.94,0,0,0,15.4,9.83A55.17,55.17,0,0,0,609,107.44q15.46,0,23.36-5.88t7.9-15.32q0-7.27-4.18-11.61A27.73,27.73,0,0,0,625.7,68,142.18,142.18,0,0,0,609,63.18a162.26,162.26,0,0,1-19.12-5.73,30.52,30.52,0,0,1-12.22-8.58q-5-5.8-5-15.56a26.43,26.43,0,0,1,4.18-14.47Q581,12.27,589.56,8.4T611,4.53a60.56,60.56,0,0,1,17.64,2.63,52.07,52.07,0,0,1,15,7.12l-2.94,6.34a50.32,50.32,0,0,0-14.31-6.81A54.25,54.25,0,0,0,611,11.49q-15,0-22.75,6a18.92,18.92,0,0,0-7.74,15.63q0,7.28,4.18,11.6a27.68,27.68,0,0,0,10.37,6.66,155.5,155.5,0,0,0,16.87,4.95,157.78,157.78,0,0,1,19,5.73,31.38,31.38,0,0,1,12.15,8.43q5,5.66,5,15.24a25.72,25.72,0,0,1-4.26,14.4q-4.26,6.49-13.07,10.36t-21.67,3.87A62.93,62.93,0,0,1,586.47,110.3Z" style="fill:#fff"/><path d="M770.08,5.3V113.63h-7.89V62.1H689.76v51.53h-7.89V5.3h7.89V55.13h72.43V5.3Z" style="fill:#fff"/><path d="M814.8,5.3h7.9V113.63h-7.9Z" style="fill:#fff"/><path d="M938.3,15q-11.61-9.68-32-9.68H867.42v7.12h38.84q17.34,0,26.46,7.66t9.13,21.74q0,14.09-9.13,21.67t-26.46,7.58H867.42v42.56h7.89V78.19h31q20.43,0,32-9.67t11.6-26.7Q949.9,24.65,938.3,15Z" style="fill:#fff"/><path d="M61.33,75.72q12.21-3.57,18.8-12.31t6.58-21.59Q86.71,24.65,75.1,15t-32-9.68H4.22v7.12H43.07q17.32,0,26.46,7.66t9.13,21.74q0,14.09-9.13,21.75T43.07,71.23H4.22v42.4h7.9V78.19h31a80.07,80.07,0,0,0,10.52-.77l25.84,36.21h9Z" style="fill:#fff"/><polygon points="130.5 12.42 195.03 12.42 195.03 5.3 122.61 5.3 122.61 12.52 130.5 12.52 130.5 12.42" style="fill:#fff"/><polygon points="141.49 106.51 141.49 106.79 122.61 106.79 122.61 113.63 197.35 113.63 197.35 106.51 141.49 106.51" style="fill:#fff"/><polygon points="131.28 62.1 194.73 62.1 194.73 55.13 149.11 55.13 149.11 55.29 122.61 55.29 122.61 62.27 131.28 62.27 131.28 62.1" style="fill:#fff"/><polygon points="272.71 5.3 264.82 5.3 214.99 113.63 223.5 113.63 237.28 83.14 237.29 83.14 240.37 76.49 268.69 13.97 297.16 76.49 300.04 83.14 300.1 83.14 314.03 113.63 322.54 113.63 272.71 5.3" style="fill:#fff"/><path d="M442.32,31.53A50.86,50.86,0,0,0,422,12.27q-13.08-7-29.94-7H349.16v7.12h42.25q15,0,26.46,6A42.64,42.64,0,0,1,435.51,35a47.8,47.8,0,0,1,6.19,24.45,47.83,47.83,0,0,1-6.19,24.45,42.62,42.62,0,0,1-17.64,16.63q-11.46,6-26.46,6H357.05v-47h-7.89v54.16H392q16.86,0,29.94-7A51,51,0,0,0,442.32,87.4a53.81,53.81,0,0,0,7.27-27.93A53.87,53.87,0,0,0,442.32,31.53Z" style="fill:#fff"/><path d="M512.73,76.33v37.3h-7.89V76.33L461.2,5.3h8.66L509,69.06,548.17,5.3h8.2Z" style="fill:#fff"/><path d="M586.47,110.3q-10.76-4.1-16.79-10.6l3.56-5.88a41.94,41.94,0,0,0,15.4,9.83A55.17,55.17,0,0,0,609,107.44q15.46,0,23.36-5.88t7.9-15.32q0-7.27-4.18-11.61A27.73,27.73,0,0,0,625.7,68,142.18,142.18,0,0,0,609,63.18a162.26,162.26,0,0,1-19.12-5.73,30.52,30.52,0,0,1-12.22-8.58q-5-5.8-5-15.56a26.43,26.43,0,0,1,4.18-14.47Q581,12.27,589.56,8.4T611,4.53a60.56,60.56,0,0,1,17.64,2.63,52.07,52.07,0,0,1,15,7.12l-2.94,6.34a50.32,50.32,0,0,0-14.31-6.81A54.25,54.25,0,0,0,611,11.49q-15,0-22.75,6a18.92,18.92,0,0,0-7.74,15.63q0,7.28,4.18,11.6a27.68,27.68,0,0,0,10.37,6.66,155.5,155.5,0,0,0,16.87,4.95,157.78,157.78,0,0,1,19,5.73,31.38,31.38,0,0,1,12.15,8.43q5,5.66,5,15.24a25.72,25.72,0,0,1-4.26,14.4q-4.26,6.49-13.07,10.36t-21.67,3.87A62.93,62.93,0,0,1,586.47,110.3Z" style="fill:#fff"/><path d="M770.08,5.3V113.63h-7.89V62.1H689.76v51.53h-7.89V5.3h7.89V55.13h72.43V5.3Z" style="fill:#fff"/><path d="M814.8,5.3h7.9V113.63h-7.9Z" style="fill:#fff"/><path d="M938.3,15q-11.61-9.68-32-9.68H867.42v7.12h38.84q17.34,0,26.46,7.66t9.13,21.74q0,14.09-9.13,21.67t-26.46,7.58H867.42v42.56h7.89V78.19h31q20.43,0,32-9.67t11.6-26.7Q949.9,24.65,938.3,15Z" style="fill:#fff"/></g></svg>