<svg xmlns="http://www.w3.org/2000/svg" xmlns:xlink="http://www.w3.org/1999/xlink" viewBox="0 0 954.12 134.92"><defs><linearGradient id="linear-gradient" x1="23.25" y1="67.46" x2="930.88" y2="67.46" gradientTransform="translate(1)" gradientUnits="userSpaceOnUse"><stop offset="0" stop-color="#f06a69"/><stop offset="0.22" stop-color="#f07369"/><stop offset="0.58" stop-color="#f18d69"/><stop offset="1" stop-color="#f2b26a"/></linearGradient></defs><g id="Layer_6" data-name="Layer 6"><path d="M79.05,83.05q11.73-3.4,18-11.8t6.31-20.72q0-16.48-11.14-25.77T61.53,15.48H24.25v6.83H61.53q16.64,0,25.4,7.35t8.76,20.87q0,13.52-8.76,20.86t-25.4,7.36H24.25v40.69h7.57v-34H61.53a76.76,76.76,0,0,0,10.1-.74l24.8,34.75h8.62Z"/><polygon points="145.44 22.31 207.38 22.31 207.38 15.47 137.87 15.47 137.87 22.4 145.44 22.4 145.44 22.31"/><polygon points="155.99 112.61 155.99 112.88 137.87 112.88 137.87 119.44 209.6 119.44 209.6 112.61 155.99 112.61"/><polygon points="146.19 69.98 207.09 69.98 207.09 63.3 163.31 63.3 163.31 63.45 137.87 63.45 137.87 70.16 146.19 70.16 146.19 69.98"/><polygon points="281.94 15.47 274.36 15.47 226.54 119.44 234.71 119.44 247.92 90.18 247.94 90.18 250.89 83.8 278.07 23.79 305.4 83.8 308.16 90.18 308.23 90.18 321.59 119.44 329.76 119.44 281.94 15.47"/><path d="M444.72,40.65a48.9,48.9,0,0,0-19.53-18.49q-12.56-6.69-28.74-6.68H355.31v6.83h40.54q14.41,0,25.4,5.72a40.86,40.86,0,0,1,16.93,16,46,46,0,0,1,5.94,23.47,46,46,0,0,1-5.94,23.47,40.86,40.86,0,0,1-16.93,16q-11,5.73-25.4,5.72h-33V67.46h-7.57v52h41.14q16.19,0,28.74-6.68a49,49,0,0,0,19.53-18.49,51.71,51.71,0,0,0,7-26.81A51.71,51.71,0,0,0,444.72,40.65Z"/><path d="M512.3,83.65v35.79h-7.58V83.65L462.84,15.48h8.31l37.58,61.19,37.58-61.19h7.87Z"/><path d="M583.07,116.25q-10.34-3.93-16.12-10.17l3.42-5.65a40.14,40.14,0,0,0,14.78,9.43,52.92,52.92,0,0,0,19.53,3.64q14.85,0,22.43-5.64a17.52,17.52,0,0,0,7.57-14.71q0-7-4-11.14a26.45,26.45,0,0,0-9.95-6.38,136.88,136.88,0,0,0-16-4.61,156.08,156.08,0,0,1-18.34-5.49,29.21,29.21,0,0,1-11.74-8.25q-4.83-5.56-4.82-14.92a25.34,25.34,0,0,1,4-13.89q4-6.31,12.25-10t20.57-3.72a57.74,57.74,0,0,1,16.93,2.53A49.72,49.72,0,0,1,638,24.09l-2.82,6.09a48.33,48.33,0,0,0-13.74-6.54,51.91,51.91,0,0,0-14.78-2.22q-14.42,0-21.83,5.79a18.14,18.14,0,0,0-7.43,15q0,7,4,11.14a26.59,26.59,0,0,0,9.95,6.39,151.75,151.75,0,0,0,16.19,4.75A152.63,152.63,0,0,1,625.77,70a30.24,30.24,0,0,1,11.66,8.1q4.83,5.42,4.83,14.63a24.71,24.71,0,0,1-4.09,13.81q-4.08,6.24-12.55,10t-20.79,3.72A60.62,60.62,0,0,1,583.07,116.25Z"/><path d="M759.29,15.48v104h-7.57V70H682.21v49.46h-7.58v-104h7.58V63.3h69.51V15.48Z"/><path d="M802.22,15.48h7.57v104h-7.57Z"/><path d="M920.74,24.76Q909.59,15.48,890,15.48H852.71v6.83H890q16.63,0,25.4,7.35t8.77,20.87q0,13.52-8.77,20.79T890,78.6H852.71v40.84h7.58v-34H890q19.6,0,30.75-9.28t11.14-25.62Q931.88,34,920.74,24.76Z"/><path d="M79.05,83.05q11.73-3.4,18-11.8t6.31-20.72q0-16.48-11.14-25.77T61.53,15.48H24.25v6.83H61.53q16.64,0,25.4,7.35t8.76,20.87q0,13.52-8.76,20.86t-25.4,7.36H24.25v40.69h7.57v-34H61.53a76.76,76.76,0,0,0,10.1-.74l24.8,34.75h8.62Z" style="fill:url(#linear-gradient)"/><polygon points="145.44 22.31 207.38 22.31 207.38 15.47 137.87 15.47 137.87 22.4 145.44 22.4 145.44 22.31" style="fill:url(#linear-gradient)"/><polygon points="155.99 112.61 155.99 112.88 137.87 112.88 137.87 119.44 209.6 119.44 209.6 112.61 155.99 112.61" style="fill:url(#linear-gradient)"/><polygon points="146.19 69.98 207.09 69.98 207.09 63.3 163.31 63.3 163.31 63.45 137.87 63.45 137.87 70.16 146.19 70.16 146.19 69.98" style="fill:url(#linear-gradient)"/><polygon points="281.94 15.47 274.36 15.47 226.54 119.44 234.71 119.44 247.92 90.18 247.94 90.18 250.89 83.8 278.07 23.79 305.4 83.8 308.16 90.18 308.23 90.18 321.59 119.44 329.76 119.44 281.94 15.47" style="fill:url(#linear-gradient)"/><path d="M444.72,40.65a48.9,48.9,0,0,0-19.53-18.49q-12.56-6.69-28.74-6.68H355.31v6.83h40.54q14.41,0,25.4,5.72a40.86,40.86,0,0,1,16.93,16,46,46,0,0,1,5.94,23.47,46,46,0,0,1-5.94,23.47,40.86,40.86,0,0,1-16.93,16q-11,5.73-25.4,5.72h-33V67.46h-7.57v52h41.14q16.19,0,28.74-6.68a49,49,0,0,0,19.53-18.49,51.71,51.71,0,0,0,7-26.81A51.71,51.71,0,0,0,444.72,40.65Z" style="fill:url(#linear-gradient)"/><path d="M512.3,83.65v35.79h-7.58V83.65L462.84,15.48h8.31l37.58,61.19,37.58-61.19h7.87Z" style="fill:url(#linear-gradient)"/><path d="M583.07,116.25q-10.34-3.93-16.12-10.17l3.42-5.65a40.14,40.14,0,0,0,14.78,9.43,52.92,52.92,0,0,0,19.53,3.64q14.85,0,22.43-5.64a17.52,17.52,0,0,0,7.57-14.71q0-7-4-11.14a26.45,26.45,0,0,0-9.95-6.38,136.88,136.88,0,0,0-16-4.61,156.08,156.08,0,0,1-18.34-5.49,29.21,29.21,0,0,1-11.74-8.25q-4.83-5.56-4.82-14.92a25.34,25.34,0,0,1,4-13.89q4-6.31,12.25-10t20.57-3.72a57.74,57.74,0,0,1,16.93,2.53A49.72,49.72,0,0,1,638,24.09l-2.82,6.09a48.33,48.33,0,0,0-13.74-6.54,51.91,51.91,0,0,0-14.78-2.22q-14.42,0-21.83,5.79a18.14,18.14,0,0,0-7.43,15q0,7,4,11.14a26.59,26.59,0,0,0,9.95,6.39,151.75,151.75,0,0,0,16.19,4.75A152.63,152.63,0,0,1,625.77,70a30.24,30.24,0,0,1,11.66,8.1q4.83,5.42,4.83,14.63a24.71,24.71,0,0,1-4.09,13.81q-4.08,6.24-12.55,10t-20.79,3.72A60.62,60.62,0,0,1,583.07,116.25Z" style="fill:url(#linear-gradient)"/><path d="M759.29,15.48v104h-7.57V70H682.21v49.46h-7.58v-104h7.58V63.3h69.51V15.48Z" style="fill:url(#linear-gradient)"/><path d="M802.22,15.48h7.57v104h-7.57Z" style="fill:url(#linear-gradient)"/><path d="M920.74,24.76Q909.59,15.48,890,15.48H852.71v6.83H890q16.63,0,25.4,7.35t8.77,20.87q0,13.52-8.77,20.79T890,78.6H852.71v40.84h7.58v-34H890q19.6,0,30.75-9.28t11.14-25.62Q931.88,34,920.74,24.76Z" style="fill:url(#linear-gradient)"/></g></svg>